<svg width="40" height="40" viewBox="0 0 40 40" fill="none" xmlns="http://www.w3.org/2000/svg">
<circle cx="20" cy="20" r="20" fill="white"/>
<path d="M22.8884 9.69939C22.8884 8.77145 21.7343 8.3439 21.1297 9.04789L11.5061 20.2542C11.4167 20.3593 11.3593 20.4878 11.3406 20.6245C11.322 20.7612 11.3428 20.9003 11.4008 21.0255C11.4587 21.1508 11.5513 21.2567 11.6676 21.331C11.7839 21.4052 11.919 21.4446 12.0569 21.4444H17.1106V30.3006C17.1106 31.2286 18.2647 31.6561 18.8692 30.9521L28.4928 19.7458C28.5821 19.6408 28.6395 19.5125 28.6582 19.376C28.677 19.2395 28.6563 19.1005 28.5986 18.9753C28.5409 18.8502 28.4486 18.7442 28.3326 18.6698C28.2166 18.5954 28.0817 18.5558 27.9439 18.5556H22.8884V9.69939Z" fill="#1A1A1A"/>
</svg>
