<svg width="724" height="178" viewBox="0 0 724 178" fill="none" xmlns="http://www.w3.org/2000/svg">
<path d="M0.636719 155L15.5781 0.3125H68.0488L82.7266 155H53.459L51.2617 130.039H32.6289L30.6953 155H0.636719ZM34.8262 105.342H48.8887L42.1211 26.6797H40.7148L34.8262 105.342ZM84.4914 176.973V23.1641H116.484V37.2266C118.417 32.3633 121.083 28.584 124.482 25.8887C127.939 23.1348 132.861 21.7578 139.247 21.7578C147.861 21.7578 153.925 24.8926 157.441 31.1621C161.015 37.4316 162.802 45.6348 162.802 55.7715V120.635C162.802 127.373 161.835 133.467 159.902 138.916C158.027 144.307 155.038 148.584 150.937 151.748C146.894 154.854 141.591 156.406 135.029 156.406C126.474 156.406 120.292 151.25 116.484 140.938V176.973H84.4914ZM123.954 131.885C127.236 131.885 129.198 130.244 129.843 126.963C130.546 123.682 130.898 119.639 130.898 114.834V63.3301C130.898 58.4668 130.546 54.4238 129.843 51.2012C129.198 47.9199 127.236 46.2793 123.954 46.2793C120.556 46.2793 118.446 47.9492 117.626 51.2891C116.864 54.5703 116.484 58.584 116.484 63.3301V114.834C116.484 119.58 116.864 123.623 117.626 126.963C118.446 130.244 120.556 131.885 123.954 131.885ZM167.643 176.973V23.1641H199.635V37.2266C201.569 32.3633 204.235 28.584 207.633 25.8887C211.09 23.1348 216.012 21.7578 222.399 21.7578C231.012 21.7578 237.077 24.8926 240.592 31.1621C244.166 37.4316 245.954 45.6348 245.954 55.7715V120.635C245.954 127.373 244.987 133.467 243.053 138.916C241.178 144.307 238.19 148.584 234.088 151.748C230.045 154.854 224.743 156.406 218.18 156.406C209.625 156.406 203.444 151.25 199.635 140.938V176.973H167.643ZM207.106 131.885C210.387 131.885 212.35 130.244 212.995 126.963C213.698 123.682 214.049 119.639 214.049 114.834V63.3301C214.049 58.4668 213.698 54.4238 212.995 51.2012C212.35 47.9199 210.387 46.2793 207.106 46.2793C203.707 46.2793 201.598 47.9492 200.778 51.2891C200.016 54.5703 199.635 58.584 199.635 63.3301V114.834C199.635 119.58 200.016 123.623 200.778 126.963C201.598 130.244 203.707 131.885 207.106 131.885ZM251.322 155V0.3125H313.197V30.1953H282.787V60.3418H311.966V89.4336H282.787V124.854H315.218V155H251.322ZM317.774 155V23.1641H349.239V39.9512C350.411 34.9121 352.579 30.6348 355.743 27.1191C358.966 23.5449 363.419 21.7578 369.102 21.7578C378.243 21.7578 384.864 24.5703 388.966 30.1953C393.126 35.8203 395.206 43.5254 395.206 53.3105V155H364.18V56.5625C364.18 53.9844 363.653 51.6113 362.598 49.4434C361.544 47.2168 359.727 46.1035 357.149 46.1035C354.747 46.1035 352.96 46.9531 351.788 48.6523C350.675 50.293 349.971 52.373 349.679 54.8926C349.386 57.3535 349.239 59.8145 349.239 62.2754V155H317.774ZM435.906 177.852C429.812 177.852 424.568 177.529 420.174 176.885C415.838 176.299 411.941 175.215 408.484 173.633C405.027 172.051 401.57 169.824 398.113 166.953L408.748 148.76C416.424 153.33 424.1 155.615 431.775 155.615C436.814 155.615 440.564 154.004 443.025 150.781C445.486 147.559 446.717 143.369 446.717 138.213V125.293C444.197 134.316 437.488 138.828 426.59 138.828C420.32 138.828 415.252 137.334 411.385 134.346C407.518 131.357 404.705 127.314 402.947 122.217C401.189 117.119 400.311 111.436 400.311 105.166V57.793C400.311 50.7031 401.072 44.4629 402.596 39.0723C404.119 33.623 406.785 29.375 410.594 26.3281C414.402 23.2812 419.734 21.7578 426.59 21.7578C432.391 21.7578 436.902 23.2227 440.125 26.1523C443.406 29.082 445.604 33.0371 446.717 38.0176V23.1641H478.797V136.191C478.797 151.133 475.34 161.797 468.426 168.184C461.57 174.629 450.73 177.852 435.906 177.852ZM439.334 115.098C444.256 115.098 446.717 110.645 446.717 101.738V56.9141C446.717 54.5117 446.014 52.0508 444.607 49.5312C443.26 47.0117 441.385 45.752 438.982 45.752C435.936 45.752 434.031 46.8945 433.27 49.1797C432.508 51.4062 432.127 53.9844 432.127 56.9141V101.738C432.127 104.902 432.508 107.92 433.27 110.791C434.09 113.662 436.111 115.098 439.334 115.098ZM507.896 156.406C500.571 156.406 494.976 154.707 491.109 151.309C487.3 147.91 484.693 143.252 483.286 137.334C481.88 131.416 481.177 124.707 481.177 117.207C481.177 109.18 481.968 102.617 483.55 97.5195C485.132 92.3633 487.827 88.1445 491.636 84.8633C495.503 81.582 500.806 78.7988 507.544 76.5137L527.056 69.834V56.2988C527.056 49.209 524.741 45.6641 520.112 45.6641C515.894 45.6641 513.784 48.5352 513.784 54.2773V62.1875H483.198C483.14 61.7188 483.111 61.1328 483.111 60.4297C483.111 59.668 483.111 58.8184 483.111 57.8809C483.111 44.7559 486.187 35.4688 492.339 30.0195C498.55 24.5117 508.364 21.7578 521.782 21.7578C528.814 21.7578 535.112 23.0176 540.679 25.5371C546.245 27.998 550.64 31.6602 553.862 36.5234C557.144 41.3867 558.784 47.3926 558.784 54.541V155H527.495V139.355C525.972 144.863 523.452 149.082 519.937 152.012C516.421 154.941 512.407 156.406 507.896 156.406ZM520.288 131.973C522.866 131.973 524.624 130.889 525.562 128.721C526.499 126.553 526.968 124.209 526.968 121.689V84.9512C522.632 86.709 519.263 88.9355 516.861 91.6309C514.458 94.2676 513.257 98.1641 513.257 103.32V120.283C513.257 128.076 515.601 131.973 520.288 131.973ZM599.221 177.852C593.127 177.852 587.883 177.529 583.489 176.885C579.153 176.299 575.256 175.215 571.799 173.633C568.342 172.051 564.885 169.824 561.428 166.953L572.063 148.76C579.739 153.33 587.414 155.615 595.09 155.615C600.129 155.615 603.879 154.004 606.34 150.781C608.801 147.559 610.032 143.369 610.032 138.213V125.293C607.512 134.316 600.803 138.828 589.905 138.828C583.635 138.828 578.567 137.334 574.7 134.346C570.832 131.357 568.02 127.314 566.262 122.217C564.504 117.119 563.625 111.436 563.625 105.166V57.793C563.625 50.7031 564.387 44.4629 565.911 39.0723C567.434 33.623 570.1 29.375 573.909 26.3281C577.717 23.2812 583.049 21.7578 589.905 21.7578C595.705 21.7578 600.217 23.2227 603.44 26.1523C606.721 29.082 608.918 33.0371 610.032 38.0176V23.1641H642.112V136.191C642.112 151.133 638.655 161.797 631.741 168.184C624.885 174.629 614.045 177.852 599.221 177.852ZM602.649 115.098C607.571 115.098 610.032 110.645 610.032 101.738V56.9141C610.032 54.5117 609.328 52.0508 607.922 49.5312C606.575 47.0117 604.7 45.752 602.297 45.752C599.25 45.752 597.346 46.8945 596.584 49.1797C595.823 51.4062 595.442 53.9844 595.442 56.9141V101.738C595.442 104.902 595.823 107.92 596.584 110.791C597.405 113.662 599.426 115.098 602.649 115.098ZM684.13 156.406C674.755 156.406 667.285 154.648 661.718 151.133C656.152 147.617 652.168 142.549 649.765 135.928C647.363 129.307 646.162 121.338 646.162 112.021V59.0234C646.162 46.7773 649.677 37.5195 656.709 31.25C663.74 24.9219 673.408 21.7578 685.713 21.7578C711.025 21.7578 723.681 34.1797 723.681 59.0234V68.6035C723.681 80.2051 723.564 87.998 723.33 91.9824H677.627V117.471C677.627 119.814 677.773 122.129 678.066 124.414C678.359 126.641 679.004 128.486 680 129.951C681.054 131.416 682.724 132.148 685.009 132.148C688.291 132.148 690.341 130.742 691.162 127.93C691.982 125.059 692.392 121.338 692.392 116.768V104.111H723.681V111.582C723.681 121.426 722.451 129.688 719.99 136.367C717.588 142.988 713.486 147.998 707.685 151.396C701.943 154.736 694.091 156.406 684.13 156.406ZM677.451 76.3379H692.392V58.584C692.392 53.8379 691.806 50.4395 690.634 48.3887C689.463 46.2793 687.705 45.2246 685.361 45.2246C682.841 45.2246 680.879 46.2207 679.472 48.2129C678.125 50.2051 677.451 53.6621 677.451 58.584V76.3379Z" fill="white"/>
</svg>
