<svg width="40" height="40" viewBox="0 0 40 40" fill="none" xmlns="http://www.w3.org/2000/svg">
<circle cx="20" cy="20" r="20" fill="#1A1A1A"/>
<path d="M10.3894 17.0714H29.625C29.7245 17.0714 29.8198 17.0319 29.8901 16.9616C29.9604 16.8913 29.9999 16.7959 29.9999 16.6965V15.543C30.0018 15.341 29.9637 15.1407 29.8877 14.9536C29.8118 14.7665 29.6995 14.5963 29.5574 14.4528C29.4153 14.3094 29.2461 14.1955 29.0597 14.1178C28.8733 14.0401 28.6734 14.0001 28.4715 14.0001H11.543C11.3398 13.9981 11.1383 14.0367 10.9502 14.1136C10.7622 14.1904 10.5913 14.304 10.4477 14.4477C10.304 14.5913 10.1904 14.7622 10.1136 14.9502C10.0367 15.1383 9.99814 15.3398 10.0001 15.543V16.6965C10 16.747 10.0102 16.7969 10.0299 16.8434C10.0497 16.8899 10.0786 16.9318 10.1149 16.9668C10.1513 17.0019 10.1943 17.0292 10.2415 17.0471C10.2887 17.0651 10.339 17.0734 10.3894 17.0714V17.0714Z" fill="white"/>
<path d="M29.9999 26.3139V19.3781C29.9999 19.2787 29.9604 19.1833 29.8901 19.113C29.8198 19.0427 29.7245 19.0032 29.625 19.0032H10.3894C10.339 19.0013 10.2887 19.0095 10.2415 19.0275C10.1943 19.0455 10.1513 19.0728 10.1149 19.1078C10.0786 19.1428 10.0497 19.1848 10.0299 19.2312C10.0102 19.2777 10 19.3276 10.0001 19.3781V26.3139C9.99811 26.5164 10.0368 26.7172 10.1138 26.9045C10.1908 27.0918 10.3046 27.2617 10.4485 27.4042C10.5924 27.5467 10.7633 27.6589 10.9513 27.7342C11.1393 27.8094 11.3405 27.8462 11.543 27.8424H28.4715C28.6727 27.8443 28.8723 27.8061 29.0587 27.7299C29.245 27.6538 29.4142 27.5413 29.5565 27.399C29.6989 27.2567 29.8114 27.0874 29.8875 26.9011C29.9636 26.7148 30.0019 26.5152 29.9999 26.3139V26.3139ZM17.7001 24.771H13.8501C13.6636 24.7455 13.4927 24.6532 13.369 24.5114C13.2453 24.3696 13.1771 24.1878 13.1771 23.9996C13.1771 23.8114 13.2453 23.6295 13.369 23.4877C13.4927 23.3459 13.6636 23.2537 13.8501 23.2281H17.7001C17.8865 23.2537 18.0574 23.3459 18.1812 23.4877C18.3049 23.6295 18.373 23.8114 18.373 23.9996C18.373 24.1878 18.3049 24.3696 18.1812 24.5114C18.0574 24.6532 17.8865 24.7455 17.7001 24.771V24.771Z" fill="white"/>
</svg>
