<svg width="40" height="40" viewBox="0 0 40 40" fill="none" xmlns="http://www.w3.org/2000/svg">
<circle cx="20" cy="20" r="20" fill="#1A1A1A"/>
<path d="M25.1455 17.7934H24.6761V15.1643C24.6761 13.7947 24.132 12.4811 23.1635 11.5126C22.195 10.5441 20.8814 10 19.5117 10C18.1421 10 16.8285 10.5441 15.86 11.5126C14.8915 12.4811 14.3474 13.7947 14.3474 15.1643V17.7934H13.8779C13.3799 17.7934 12.9022 17.9913 12.55 18.3435C12.1979 18.6956 12 19.1733 12 19.6714V28.1221C12 28.6201 12.1979 29.0978 12.55 29.45C12.9022 29.8021 13.3799 30 13.8779 30H25.1455C25.6436 30 26.1213 29.8021 26.4734 29.45C26.8256 29.0978 27.0235 28.6201 27.0235 28.1221V19.6714C27.0235 19.1733 26.8256 18.6956 26.4734 18.3435C26.1213 17.9913 25.6436 17.7934 25.1455 17.7934ZM19.5117 24.8357C19.1403 24.8357 18.7772 24.7255 18.4684 24.5192C18.1596 24.3128 17.9189 24.0195 17.7768 23.6764C17.6346 23.3333 17.5974 22.9557 17.6699 22.5914C17.7423 22.2271 17.9212 21.8925 18.1838 21.6298C18.4465 21.3672 18.7811 21.1884 19.1454 21.1159C19.5097 21.0434 19.8872 21.0806 20.2304 21.2228C20.5735 21.3649 20.8668 21.6056 21.0732 21.9144C21.2795 22.2232 21.3897 22.5863 21.3897 22.9577C21.3897 23.4558 21.1918 23.9335 20.8396 24.2856C20.4875 24.6378 20.0098 24.8357 19.5117 24.8357ZM17.1643 17.7934V15.1643C17.1643 14.5417 17.4116 13.9447 17.8519 13.5044C18.2921 13.0642 18.8892 12.8169 19.5117 12.8169C20.1343 12.8169 20.7314 13.0642 21.1716 13.5044C21.6118 13.9447 21.8592 14.5417 21.8592 15.1643V17.7934H17.1643Z" fill="white"/>
</svg>
