<svg width="40" height="40" viewBox="0 0 40 40" fill="none" xmlns="http://www.w3.org/2000/svg">
<circle cx="20" cy="20" r="20" fill="#1A1A1A"/>
<g clip-path="url(#clip0_1704_338)">
<path d="M15.966 20.4995C15.8892 20.4199 15.7972 20.3565 15.6955 20.3128C15.5939 20.2691 15.4845 20.2461 15.3738 20.2451C15.2632 20.2442 15.1535 20.2653 15.051 20.3072C14.9486 20.3491 14.8556 20.411 14.7773 20.4892C14.6991 20.5675 14.6372 20.6605 14.5953 20.7629C14.5534 20.8653 14.5323 20.9751 14.5333 21.0857C14.5342 21.1964 14.5572 21.3057 14.6009 21.4074C14.6446 21.5091 14.7081 21.601 14.7876 21.6779L15.0818 21.9721C15.1599 22.0502 15.2038 22.1562 15.2038 22.2667C15.2038 22.3772 15.1599 22.4832 15.0818 22.5613L10.4891 27.1557C10.2564 27.3888 10.098 27.6856 10.0339 28.0086C9.96972 28.3317 10.0027 28.6665 10.1287 28.9708C10.2547 29.2751 10.468 29.5353 10.7417 29.7184C11.0155 29.9016 11.3373 29.9996 11.6667 30C11.8858 30.0007 12.103 29.9578 12.3054 29.8738C12.5078 29.7898 12.6916 29.6664 12.8459 29.5108L17.4378 24.9189C17.5159 24.8408 17.6219 24.7969 17.7324 24.7969C17.8429 24.7969 17.9488 24.8408 18.027 24.9189L18.3211 25.2131C18.3985 25.2905 18.4904 25.3519 18.5915 25.3939C18.6926 25.4358 18.801 25.4574 18.9105 25.4574C19.0199 25.4575 19.1283 25.4359 19.2295 25.3941C19.3306 25.3522 19.4225 25.2909 19.4999 25.2135C19.5774 25.1361 19.6388 25.0443 19.6807 24.9431C19.7227 24.842 19.7443 24.7336 19.7443 24.6242C19.7443 24.5147 19.7228 24.4063 19.681 24.3052C19.6391 24.204 19.5777 24.1121 19.5004 24.0347L15.966 20.4995Z" fill="white"/>
<path d="M27.0288 15.1577H27.1329C27.3381 15.1423 27.5375 15.0831 27.7177 14.9838C27.8978 14.8846 28.0545 14.7478 28.1772 14.5826L29.8172 12.3884C29.9497 12.2104 30.0141 11.9909 29.9988 11.7696C29.9835 11.5483 29.8895 11.3397 29.7339 11.1816L28.8188 10.2699C28.6654 10.1169 28.4632 10.0226 28.2473 10.0036C28.0315 9.98454 27.8158 10.0419 27.638 10.1658L25.3879 11.7283C25.2155 11.8477 25.0715 12.0037 24.9663 12.185C24.861 12.3663 24.7969 12.5687 24.7787 12.7775C24.7621 12.9707 24.7862 13.1652 24.8495 13.3484C24.8746 13.4221 24.8786 13.5014 24.8609 13.5773C24.8432 13.6532 24.8046 13.7226 24.7495 13.7776L18.4084 20.1112C18.2913 20.2284 18.2256 20.3873 18.2256 20.5529C18.2256 20.7185 18.2913 20.8774 18.4084 20.9946L18.9984 21.5846C19.0564 21.6427 19.1254 21.6888 19.2012 21.7202C19.2771 21.7516 19.3584 21.7678 19.4405 21.7678C19.5226 21.7678 19.6039 21.7516 19.6798 21.7202C19.7556 21.6888 19.8246 21.6427 19.8826 21.5846L26.2579 15.216C26.3102 15.163 26.3757 15.125 26.4477 15.106C26.5197 15.0869 26.5954 15.0875 26.6671 15.1077C26.7849 15.1403 26.9065 15.1571 27.0288 15.1577V15.1577Z" fill="white"/>
<path d="M25.1756 22.627C25.1048 22.646 25.0302 22.646 24.9594 22.627C24.8886 22.608 24.824 22.5706 24.7723 22.5187L22.9055 20.6519C22.8258 20.5769 22.7204 20.5352 22.6109 20.5352C22.5015 20.5352 22.3961 20.5769 22.3163 20.6519L20.5488 22.4162C20.4706 22.4943 20.4268 22.6003 20.4268 22.7108C20.4268 22.8213 20.4706 22.9272 20.5488 23.0054L22.4155 24.8729C22.4673 24.9248 22.5045 24.9894 22.5234 25.0602C22.5423 25.131 22.5421 25.2055 22.523 25.2763C22.3541 25.9121 22.3551 26.5811 22.5261 27.2163C22.697 27.8515 23.0318 28.4307 23.497 28.8959C23.9621 29.3611 24.5413 29.6959 25.1765 29.8668C25.8118 30.0377 26.4808 30.0388 27.1166 29.8698C27.1873 29.851 27.2519 29.8139 27.3038 29.7622C27.3557 29.7105 27.393 29.646 27.412 29.5753C27.431 29.5046 27.431 29.4301 27.4121 29.3593C27.3931 29.2886 27.3559 29.2241 27.3041 29.1723L26.054 27.9272C25.9873 27.8597 25.9453 27.7716 25.9348 27.6772L25.7873 26.3513C25.7804 26.2892 25.7876 26.2263 25.8083 26.1673C25.8291 26.1082 25.8628 26.0547 25.9071 26.0105C25.9514 25.9663 26.005 25.9326 26.0641 25.912C26.1231 25.8914 26.186 25.8843 26.2482 25.8913L27.5732 26.0388C27.6677 26.0489 27.7559 26.0909 27.8233 26.158L29.0733 27.4081C29.1251 27.4597 29.1895 27.4967 29.2602 27.5156C29.3308 27.5344 29.4052 27.5343 29.4758 27.5153C29.5463 27.4963 29.6107 27.4591 29.6623 27.4073C29.714 27.3556 29.7511 27.2912 29.77 27.2205C29.9405 26.5846 29.9407 25.915 29.7703 25.2789C29.6 24.6429 29.2652 24.063 28.7996 23.5974C28.334 23.1319 27.7541 22.7971 27.1181 22.6267C26.4821 22.4564 25.8124 22.4565 25.1765 22.627H25.1756Z" fill="white"/>
<path d="M14.7215 17.4779C14.7923 17.4589 14.8669 17.4589 14.9378 17.4779C15.0086 17.4969 15.0731 17.5343 15.1249 17.5862L16.9916 19.453C17.0698 19.5311 17.1757 19.575 17.2862 19.575C17.3967 19.575 17.5027 19.5311 17.5808 19.453L19.3484 17.6854C19.4265 17.6073 19.4704 17.5013 19.4704 17.3908C19.4704 17.2803 19.4265 17.1744 19.3484 17.0962L17.4816 15.2286C17.4298 15.1768 17.3926 15.1122 17.3737 15.0414C17.3549 14.9706 17.355 14.896 17.3741 14.8253C17.5448 14.1892 17.5449 13.5195 17.3745 12.8834C17.2041 12.2473 16.8692 11.6673 16.4035 11.2017C15.9379 10.7361 15.3578 10.4013 14.7217 10.231C14.0855 10.0608 13.4158 10.061 12.7798 10.2317C12.7091 10.2506 12.6447 10.2877 12.593 10.3394C12.5413 10.391 12.504 10.4554 12.485 10.526C12.466 10.5966 12.4659 10.6709 12.4848 10.7416C12.5036 10.8122 12.5407 10.8767 12.5923 10.9284L13.8381 12.1785C13.9055 12.2457 13.9479 12.3339 13.9582 12.4285L14.1048 13.7494C14.1117 13.8115 14.1045 13.8743 14.0838 13.9333C14.0632 13.9922 14.0295 14.0457 13.9853 14.0899C13.9411 14.1341 13.8876 14.1677 13.8287 14.1884C13.7697 14.2091 13.7069 14.2163 13.6448 14.2094L12.3189 14.0619C12.2244 14.0519 12.1362 14.0098 12.0689 13.9427L10.8247 12.6968C10.7729 12.6452 10.7085 12.6082 10.6378 12.5893C10.5672 12.5705 10.4928 12.5706 10.4222 12.5896C10.3516 12.6086 10.2873 12.6458 10.2356 12.6976C10.184 12.7493 10.1469 12.8137 10.128 12.8844C9.95744 13.5203 9.95734 14.19 10.1277 14.826C10.298 15.462 10.6328 16.0419 11.0984 16.5075C11.564 16.9731 12.1439 17.3078 12.7799 17.4782C13.4159 17.6485 14.0856 17.6484 14.7215 17.4779V17.4779Z" fill="white"/>
</g>
<defs>
<clipPath id="clip0_1704_338">
<rect width="20" height="20" fill="white" transform="translate(10 10)"/>
</clipPath>
</defs>
</svg>
