<svg width="24" height="25" viewBox="0 0 24 25" fill="none" xmlns="http://www.w3.org/2000/svg">
<path d="M14.2222 2.36047L5.46665 12.556C5.39788 12.6369 5.3537 12.7357 5.33934 12.8408C5.32498 12.946 5.34103 13.053 5.3856 13.1494C5.43017 13.2457 5.5014 13.3272 5.59085 13.3843C5.6803 13.4414 5.78423 13.4717 5.89035 13.4716H9.77776V22.3605L18.5333 12.1649C18.602 12.0842 18.6462 11.9855 18.6606 11.8805C18.675 11.7755 18.6591 11.6685 18.6147 11.5723C18.5703 11.476 18.4993 11.3945 18.4101 11.3372C18.3208 11.28 18.2171 11.2495 18.1111 11.2494H14.2222V2.36047Z" stroke="#1B2D45" stroke-width="2" stroke-linecap="round" stroke-linejoin="round"/>
</svg>
