<svg width="24" height="25" viewBox="0 0 24 25" fill="none" xmlns="http://www.w3.org/2000/svg">
<path d="M11.7496 5.49992C11.0753 5.49145 10.4029 5.57214 9.74974 5.73991C6.83699 6.46966 4.02735 8.74599 2.13144 11.0641C1.88497 11.3774 1.75098 11.7645 1.75098 12.1632C1.75098 12.5618 1.88497 12.9489 2.13144 13.2622C3.99801 15.5412 6.80055 17.8576 9.75329 18.5953C10.4055 18.7614 11.0767 18.8411 11.7496 18.8326C12.4238 18.8414 13.0962 18.7616 13.7495 18.5953C16.7023 17.8602 19.5075 15.543 21.3705 13.2622C21.617 12.9489 21.751 12.5618 21.751 12.1632C21.751 11.7645 21.617 11.3774 21.3705 11.0641C19.4737 8.7451 16.6596 6.46877 13.7495 5.73902C13.0963 5.5717 12.4239 5.4913 11.7496 5.49992V5.49992Z" stroke="#1B2D45" stroke-width="2" stroke-linecap="round" stroke-linejoin="round"/>
<circle cx="11.7508" cy="11.9163" r="1.9428" stroke="#1B2D45" stroke-width="2" stroke-linecap="round" stroke-linejoin="round"/>
</svg>
