<svg width="24" height="25" viewBox="0 0 24 25" fill="none" xmlns="http://www.w3.org/2000/svg">
<path d="M5.99992 22.3605C5.29267 22.3605 4.6144 22.0795 4.1143 21.5794C3.6142 21.0793 3.33325 20.4011 3.33325 19.6938V7.49825C3.33438 7.08452 3.43177 6.67674 3.6177 6.30714L5.39547 2.75158C5.45099 2.64123 5.53607 2.54847 5.64123 2.48365C5.7464 2.41884 5.8675 2.38451 5.99103 2.38451C6.11456 2.38451 6.23566 2.41884 6.34082 2.48365C6.44599 2.54847 6.53107 2.64123 6.58659 2.75158L8.36436 6.30714C8.55029 6.67674 8.64768 7.08452 8.64881 7.49825V19.6938C8.64882 20.398 8.37031 21.0736 7.87405 21.5732C7.3778 22.0728 6.70408 22.3558 5.99992 22.3605V22.3605Z" stroke="#1B2D45" stroke-width="2" stroke-linecap="round" stroke-linejoin="round"/>
<path d="M3.33325 7.47159H8.66659" stroke="#1B2D45" stroke-width="2" stroke-linecap="round" stroke-linejoin="round"/>
<path d="M3.33325 18.1382H8.66659" stroke="#1B2D45" stroke-width="2" stroke-linecap="round" stroke-linejoin="round"/>
<path d="M19.3333 2.36047H14C13.2636 2.36047 12.6666 2.95743 12.6666 3.69381V21.0271C12.6666 21.7635 13.2636 22.3605 14 22.3605H19.3333C20.0697 22.3605 20.6666 21.7635 20.6666 21.0271V3.69381C20.6666 2.95743 20.0697 2.36047 19.3333 2.36047Z" stroke="#1B2D45" stroke-width="2" stroke-linecap="round" stroke-linejoin="round"/>
<path d="M12.6666 6.36047H15.7777" stroke="#1B2D45" stroke-width="2" stroke-linecap="round" stroke-linejoin="round"/>
<path d="M12.6666 10.3605H15.7777" stroke="#1B2D45" stroke-width="2" stroke-linecap="round" stroke-linejoin="round"/>
<path d="M12.6666 14.3605H15.7777" stroke="#1B2D45" stroke-width="2" stroke-linecap="round" stroke-linejoin="round"/>
<path d="M12.6666 18.3605H15.7777" stroke="#1B2D45" stroke-width="2" stroke-linecap="round" stroke-linejoin="round"/>
</svg>
