<svg width="40" height="40" viewBox="0 0 40 40" fill="none" xmlns="http://www.w3.org/2000/svg">
<circle cx="20" cy="20" r="20" fill="#1A1A1A"/>
<path fill-rule="evenodd" clip-rule="evenodd" d="M12.4944 29.7219L21.5859 20.9719L24.7916 24.056L13.9827 29.8373C13.5716 30.0583 13.0668 30.0533 12.6609 29.8273C12.6609 29.8323 12.4944 29.7219 12.4944 29.7219ZM20.67 20.0879L12 28.431V11.7449L20.67 20.0879ZM26.0873 16.6422L30.3234 18.9075C30.7398 19.1285 31 19.5505 31 20.0025C31 20.4546 30.7398 20.8765 30.3234 21.0975L25.9729 23.4231L22.507 20.0879C22.5018 20.0879 26.0873 16.6422 26.0873 16.6422ZM12.3955 10.3636C12.4736 10.2933 12.562 10.228 12.6557 10.1727C13.0616 9.94668 13.5664 9.94166 13.9775 10.1627L24.906 16.0093L21.5859 19.2039L12.3955 10.3636Z" fill="white"/>
</svg>
