<svg width="40" height="40" viewBox="0 0 40 40" fill="none" xmlns="http://www.w3.org/2000/svg">
<circle cx="20" cy="20" r="20" fill="white"/>
<path d="M22.5342 21.8433C22.3688 22.0118 22.1708 22.1448 21.9523 22.2342L18.8864 23.4589C18.5706 23.586 18.2245 23.6175 17.8909 23.5496C17.5574 23.4816 17.2512 23.3172 17.0103 23.0767C16.7698 22.8358 16.6054 22.5296 16.5374 22.196C16.4695 21.8625 16.501 21.5164 16.6282 21.2006L17.8528 18.1433C17.9386 17.9224 18.0686 17.7214 18.235 17.5526L24.1584 11.629H13.7359C13.3779 11.6256 13.0227 11.6931 12.6909 11.8278C12.3591 11.9624 12.0573 12.1615 11.8029 12.4135C11.5485 12.6655 11.3465 12.9654 11.2087 13.2959C11.0709 13.6263 11 13.9809 11 14.3389V26.2904C11 27.0091 11.2855 27.6984 11.7937 28.2066C12.3019 28.7148 12.9912 29.0003 13.7099 29.0003H25.6697C26.3869 28.998 27.0739 28.7115 27.5802 28.2035C28.0865 27.6955 28.3709 27.0076 28.3709 26.2904V16.0066L22.5342 21.8433Z" fill="#1A1A1A"/>
<path d="M28.0932 9.52712L19.1559 18.4646C19.1191 18.5105 19.0871 18.56 19.0604 18.6123L17.8357 21.687C17.8028 21.7657 17.7943 21.8526 17.8113 21.9362C17.8283 22.0199 17.8701 22.0964 17.9313 22.156C17.9932 22.2134 18.0696 22.2527 18.1524 22.2695C18.2351 22.2864 18.3208 22.2802 18.4003 22.2516L21.4662 21.0182C21.523 20.9999 21.5739 20.967 21.6139 20.9227L30.5859 11.9851C30.7474 11.8238 30.8756 11.6322 30.963 11.4213C31.0504 11.2105 31.0954 10.9844 31.0954 10.7561C31.0954 10.5278 31.0504 10.3018 30.963 10.0909C30.8756 9.88003 30.7474 9.68845 30.5859 9.52712C30.424 9.36033 30.2303 9.22774 30.0162 9.1372C29.8021 9.04665 29.572 9 29.3396 9C29.1071 9 28.877 9.04665 28.6629 9.1372C28.4489 9.22774 28.2551 9.36033 28.0932 9.52712V9.52712Z" fill="#1A1A1A"/>
</svg>
