<svg width="40" height="40" viewBox="0 0 40 40" fill="none" xmlns="http://www.w3.org/2000/svg">
<circle cx="20" cy="20" r="20" fill="#1A1A1A"/>
<g clip-path="url(#clip0_1688_357)">
<path d="M29.1698 10.5147C29.1885 10.4367 29.1843 10.3549 29.1577 10.2792C29.1312 10.2036 29.0834 10.1371 29.0201 10.0879C28.9567 10.0386 28.8806 10.0087 28.8007 10.0016C28.7208 9.99455 28.6405 10.0106 28.5695 10.048L11.4692 19.0135C11.28 19.1133 11.1204 19.2612 11.0063 19.4422C10.8923 19.6231 10.8278 19.8309 10.8193 20.0447C10.8109 20.2585 10.8587 20.4707 10.9581 20.6601C11.0576 20.8495 11.205 21.0095 11.3857 21.124L15.1927 23.5301C15.2309 23.5545 15.2762 23.5657 15.3214 23.562C15.3667 23.5582 15.4094 23.5396 15.4431 23.5092L25.5924 14.436C25.6314 14.4004 25.6824 14.3809 25.7351 14.3814C25.7878 14.3819 25.8384 14.4023 25.8767 14.4386C25.915 14.4749 25.9381 14.5243 25.9415 14.5769C25.9448 14.6296 25.9281 14.6815 25.8947 14.7223L17.7832 24.8959C17.7646 24.919 17.7512 24.9459 17.7438 24.9747C17.7365 25.0035 17.7354 25.0336 17.7406 25.0628C17.7456 25.0918 17.7565 25.1193 17.7728 25.1438C17.789 25.1682 17.8102 25.189 17.835 25.2048L23.2048 28.5993C23.3681 28.7025 23.5538 28.7651 23.7463 28.782C23.9387 28.7989 24.1325 28.7696 24.3113 28.6965C24.4902 28.6234 24.649 28.5087 24.7746 28.3618C24.9001 28.2149 24.9887 28.0402 25.0331 27.8521L29.1698 10.5147Z" fill="white"/>
<path d="M16.5637 25.9964C16.5322 25.9763 16.4958 25.9652 16.4585 25.964C16.4211 25.9628 16.3841 25.9717 16.3514 25.9897C16.3186 26.0077 16.2913 26.0341 16.2723 26.0663C16.2532 26.0985 16.2432 26.1352 16.2432 26.1725V29.1647C16.243 29.3298 16.2919 29.4913 16.3836 29.6287C16.4752 29.7661 16.6056 29.8732 16.7582 29.9365C16.9107 29.9997 17.0786 30.0163 17.2406 29.9842C17.4026 29.952 17.5515 29.8725 17.6683 29.7557L19.3522 28.0718C19.3741 28.0496 19.3909 28.0228 19.4012 27.9933C19.4114 27.9638 19.415 27.9324 19.4115 27.9013C19.4081 27.8702 19.3978 27.8404 19.3813 27.8138C19.3648 27.7873 19.3426 27.7648 19.3163 27.7479L16.5637 25.9964Z" fill="white"/>
</g>
<defs>
<clipPath id="clip0_1688_357">
<rect width="20" height="20" fill="white" transform="translate(10 10)"/>
</clipPath>
</defs>
</svg>
