<svg width="24" height="25" viewBox="0 0 24 25" fill="none" xmlns="http://www.w3.org/2000/svg">
<path d="M3.25 22.3605V21.1105C3.25 19.9614 3.47633 18.8236 3.91605 17.762C4.35578 16.7004 5.0003 15.7358 5.81282 14.9233C6.62533 14.1108 7.58992 13.4663 8.65152 13.0265C9.71312 12.5868 10.8509 12.3605 12 12.3605C13.1491 12.3605 14.2869 12.5868 15.3485 13.0265C16.4101 13.4663 17.3747 14.1108 18.1872 14.9233C18.9997 15.7358 19.6442 16.7004 20.0839 17.762C20.5237 18.8236 20.75 19.9614 20.75 21.1105V22.3605" stroke="#1B2D45" stroke-width="2" stroke-linecap="round" stroke-linejoin="round"/>
<path d="M11.9999 12.3605C13.326 12.3605 14.5977 11.8337 15.5354 10.896C16.4731 9.95833 16.9999 8.68656 16.9999 7.36047C16.9999 6.03439 16.4731 4.76262 15.5354 3.82494C14.5977 2.88726 13.326 2.36047 11.9999 2.36047C10.6738 2.36047 9.40203 2.88726 8.46434 3.82494C7.52666 4.76262 6.99988 6.03439 6.99988 7.36047C6.99988 8.68656 7.52666 9.95833 8.46434 10.896C9.40203 11.8337 10.6738 12.3605 11.9999 12.3605V12.3605Z" stroke="#1B2D45" stroke-width="2" stroke-linecap="round" stroke-linejoin="round"/>
</svg>
